<mxfile host="app.diagrams.net" modified="2023-12-05T10:58:48.989Z" agent="Mozilla/5.0 (Windows NT 10.0; Win64; x64) AppleWebKit/537.36 (KHTML, like Gecko) Chrome/119.0.0.0 Safari/537.36 Edg/119.0.0.0" etag="nzAGYOSx9NCT5MqNPmQ9" version="22.1.5" type="device">
  <diagram name="第 1 页" id="u_-wgyB5sAnNmXhWVlOR">
    <mxGraphModel dx="1532" dy="683" grid="1" gridSize="10" guides="1" tooltips="1" connect="1" arrows="1" fold="1" page="1" pageScale="1" pageWidth="827" pageHeight="1169" math="0" shadow="0">
      <root>
        <mxCell id="0" />
        <mxCell id="1" parent="0" />
        <mxCell id="1fhQ9_DXwhcvuYqSz4Ig-2" style="edgeStyle=orthogonalEdgeStyle;rounded=0;orthogonalLoop=1;jettySize=auto;html=1;" edge="1" parent="1" source="1fhQ9_DXwhcvuYqSz4Ig-1" target="1fhQ9_DXwhcvuYqSz4Ig-3">
          <mxGeometry relative="1" as="geometry">
            <mxPoint x="410" y="220" as="targetPoint" />
          </mxGeometry>
        </mxCell>
        <mxCell id="1fhQ9_DXwhcvuYqSz4Ig-1" value="开始" style="rounded=1;whiteSpace=wrap;html=1;" vertex="1" parent="1">
          <mxGeometry x="40" y="290" width="120" height="60" as="geometry" />
        </mxCell>
        <mxCell id="1fhQ9_DXwhcvuYqSz4Ig-9" value="" style="edgeStyle=orthogonalEdgeStyle;rounded=0;orthogonalLoop=1;jettySize=auto;html=1;" edge="1" parent="1" source="1fhQ9_DXwhcvuYqSz4Ig-3" target="1fhQ9_DXwhcvuYqSz4Ig-8">
          <mxGeometry relative="1" as="geometry" />
        </mxCell>
        <mxCell id="1fhQ9_DXwhcvuYqSz4Ig-3" value="FLASH/RAM相关配置" style="rounded=1;whiteSpace=wrap;html=1;" vertex="1" parent="1">
          <mxGeometry x="40" y="390" width="120" height="60" as="geometry" />
        </mxCell>
        <mxCell id="1fhQ9_DXwhcvuYqSz4Ig-11" value="" style="edgeStyle=orthogonalEdgeStyle;rounded=0;orthogonalLoop=1;jettySize=auto;html=1;" edge="1" parent="1" source="1fhQ9_DXwhcvuYqSz4Ig-8" target="1fhQ9_DXwhcvuYqSz4Ig-10">
          <mxGeometry relative="1" as="geometry" />
        </mxCell>
        <mxCell id="1fhQ9_DXwhcvuYqSz4Ig-8" value="STL_SCH_Init()" style="rounded=1;whiteSpace=wrap;html=1;" vertex="1" parent="1">
          <mxGeometry x="200" y="390" width="120" height="60" as="geometry" />
        </mxCell>
        <mxCell id="1fhQ9_DXwhcvuYqSz4Ig-13" value="" style="edgeStyle=orthogonalEdgeStyle;rounded=0;orthogonalLoop=1;jettySize=auto;html=1;" edge="1" parent="1" source="1fhQ9_DXwhcvuYqSz4Ig-10" target="1fhQ9_DXwhcvuYqSz4Ig-12">
          <mxGeometry relative="1" as="geometry" />
        </mxCell>
        <mxCell id="1fhQ9_DXwhcvuYqSz4Ig-10" value="TIM16初始化" style="rounded=1;whiteSpace=wrap;html=1;" vertex="1" parent="1">
          <mxGeometry x="350" y="390" width="120" height="60" as="geometry" />
        </mxCell>
        <mxCell id="1fhQ9_DXwhcvuYqSz4Ig-15" value="" style="edgeStyle=orthogonalEdgeStyle;rounded=0;orthogonalLoop=1;jettySize=auto;html=1;" edge="1" parent="1" source="1fhQ9_DXwhcvuYqSz4Ig-12" target="1fhQ9_DXwhcvuYqSz4Ig-14">
          <mxGeometry relative="1" as="geometry" />
        </mxCell>
        <mxCell id="1fhQ9_DXwhcvuYqSz4Ig-12" value="CPU开机自检" style="rounded=1;whiteSpace=wrap;html=1;" vertex="1" parent="1">
          <mxGeometry x="350" y="490" width="120" height="60" as="geometry" />
        </mxCell>
        <mxCell id="1fhQ9_DXwhcvuYqSz4Ig-17" value="" style="edgeStyle=orthogonalEdgeStyle;rounded=0;orthogonalLoop=1;jettySize=auto;html=1;" edge="1" parent="1" source="1fhQ9_DXwhcvuYqSz4Ig-14" target="1fhQ9_DXwhcvuYqSz4Ig-16">
          <mxGeometry relative="1" as="geometry" />
        </mxCell>
        <mxCell id="1fhQ9_DXwhcvuYqSz4Ig-14" value="FLSH开机自检" style="rounded=1;whiteSpace=wrap;html=1;" vertex="1" parent="1">
          <mxGeometry x="350" y="600" width="120" height="60" as="geometry" />
        </mxCell>
        <mxCell id="1fhQ9_DXwhcvuYqSz4Ig-19" value="" style="edgeStyle=orthogonalEdgeStyle;rounded=0;orthogonalLoop=1;jettySize=auto;html=1;" edge="1" parent="1" source="1fhQ9_DXwhcvuYqSz4Ig-16" target="1fhQ9_DXwhcvuYqSz4Ig-18">
          <mxGeometry relative="1" as="geometry" />
        </mxCell>
        <mxCell id="1fhQ9_DXwhcvuYqSz4Ig-16" value="RAM开机自检" style="rounded=1;whiteSpace=wrap;html=1;" vertex="1" parent="1">
          <mxGeometry x="350" y="710" width="120" height="60" as="geometry" />
        </mxCell>
        <mxCell id="1fhQ9_DXwhcvuYqSz4Ig-21" value="" style="edgeStyle=orthogonalEdgeStyle;rounded=0;orthogonalLoop=1;jettySize=auto;html=1;" edge="1" parent="1" source="1fhQ9_DXwhcvuYqSz4Ig-18" target="1fhQ9_DXwhcvuYqSz4Ig-20">
          <mxGeometry relative="1" as="geometry" />
        </mxCell>
        <mxCell id="1fhQ9_DXwhcvuYqSz4Ig-18" value="系统频率开机自检" style="rounded=1;whiteSpace=wrap;html=1;" vertex="1" parent="1">
          <mxGeometry x="350" y="810" width="120" height="60" as="geometry" />
        </mxCell>
        <mxCell id="1fhQ9_DXwhcvuYqSz4Ig-31" style="edgeStyle=orthogonalEdgeStyle;rounded=0;orthogonalLoop=1;jettySize=auto;html=1;entryX=0.5;entryY=1;entryDx=0;entryDy=0;" edge="1" parent="1" source="1fhQ9_DXwhcvuYqSz4Ig-20" target="1fhQ9_DXwhcvuYqSz4Ig-24">
          <mxGeometry relative="1" as="geometry" />
        </mxCell>
        <mxCell id="1fhQ9_DXwhcvuYqSz4Ig-20" value="延时10ms" style="rounded=1;whiteSpace=wrap;html=1;" vertex="1" parent="1">
          <mxGeometry x="350" y="920" width="120" height="60" as="geometry" />
        </mxCell>
        <mxCell id="1fhQ9_DXwhcvuYqSz4Ig-24" value="CPU相关自检" style="rounded=1;whiteSpace=wrap;html=1;direction=east;container=0;" vertex="1" parent="1">
          <mxGeometry x="570" y="810" width="120" height="60" as="geometry" />
        </mxCell>
        <mxCell id="1fhQ9_DXwhcvuYqSz4Ig-26" value="FLSH自检" style="rounded=1;whiteSpace=wrap;html=1;direction=east;container=0;" vertex="1" parent="1">
          <mxGeometry x="570" y="710" width="120" height="60" as="geometry" />
        </mxCell>
        <mxCell id="1fhQ9_DXwhcvuYqSz4Ig-23" value="" style="edgeStyle=orthogonalEdgeStyle;rounded=0;orthogonalLoop=1;jettySize=auto;html=1;" edge="1" source="1fhQ9_DXwhcvuYqSz4Ig-24" target="1fhQ9_DXwhcvuYqSz4Ig-26" parent="1">
          <mxGeometry relative="1" as="geometry" />
        </mxCell>
        <mxCell id="1fhQ9_DXwhcvuYqSz4Ig-28" value="RAM自检" style="rounded=1;whiteSpace=wrap;html=1;direction=east;container=0;" vertex="1" parent="1">
          <mxGeometry x="570" y="600" width="120" height="60" as="geometry" />
        </mxCell>
        <mxCell id="1fhQ9_DXwhcvuYqSz4Ig-25" value="" style="edgeStyle=orthogonalEdgeStyle;rounded=0;orthogonalLoop=1;jettySize=auto;html=1;" edge="1" source="1fhQ9_DXwhcvuYqSz4Ig-26" target="1fhQ9_DXwhcvuYqSz4Ig-28" parent="1">
          <mxGeometry relative="1" as="geometry" />
        </mxCell>
        <mxCell id="1fhQ9_DXwhcvuYqSz4Ig-34" value="" style="edgeStyle=orthogonalEdgeStyle;rounded=0;orthogonalLoop=1;jettySize=auto;html=1;" edge="1" parent="1" source="1fhQ9_DXwhcvuYqSz4Ig-29" target="1fhQ9_DXwhcvuYqSz4Ig-33">
          <mxGeometry relative="1" as="geometry" />
        </mxCell>
        <mxCell id="1fhQ9_DXwhcvuYqSz4Ig-29" value="系统频率自检" style="rounded=1;whiteSpace=wrap;html=1;direction=east;container=0;" vertex="1" parent="1">
          <mxGeometry x="570" y="490" width="120" height="60" as="geometry" />
        </mxCell>
        <mxCell id="1fhQ9_DXwhcvuYqSz4Ig-27" value="" style="edgeStyle=orthogonalEdgeStyle;rounded=0;orthogonalLoop=1;jettySize=auto;html=1;" edge="1" source="1fhQ9_DXwhcvuYqSz4Ig-28" target="1fhQ9_DXwhcvuYqSz4Ig-29" parent="1">
          <mxGeometry relative="1" as="geometry" />
        </mxCell>
        <mxCell id="1fhQ9_DXwhcvuYqSz4Ig-36" style="edgeStyle=orthogonalEdgeStyle;rounded=0;orthogonalLoop=1;jettySize=auto;html=1;entryX=1;entryY=0.5;entryDx=0;entryDy=0;" edge="1" parent="1" source="1fhQ9_DXwhcvuYqSz4Ig-33" target="1fhQ9_DXwhcvuYqSz4Ig-24">
          <mxGeometry relative="1" as="geometry">
            <mxPoint x="760" y="850" as="targetPoint" />
            <Array as="points">
              <mxPoint x="770" y="420" />
              <mxPoint x="770" y="840" />
            </Array>
          </mxGeometry>
        </mxCell>
        <mxCell id="1fhQ9_DXwhcvuYqSz4Ig-33" value="延时3ms" style="rounded=1;whiteSpace=wrap;html=1;direction=east;container=0;" vertex="1" parent="1">
          <mxGeometry x="570" y="390" width="120" height="60" as="geometry" />
        </mxCell>
      </root>
    </mxGraphModel>
  </diagram>
</mxfile>
